<svg version="1.2" xmlns="http://www.w3.org/2000/svg" viewBox="0 0 557 312" width="557" height="312"><path class="a" fill="white" d="m554 63.2c-2.9-6.5-8.3-11.7-14.6-16.2-10.2-7.4-21.9-12.8-34.3-17.3-32.2-11.8-66.4-18.3-101.3-22.1-21.1-2.3-42.4-3.7-63.6-4.8-29.5-1.5-59.1-0.8-88.5 1.2-23.5 1.6-46.9 4.1-69.9 8.1-26.5 4.7-52.4 10.6-76.6 20.6-12.2 5.1-23.6 11.1-32.7 19.4-14.1 12.9-14.4 28.1-0.1 40.9 5.6 4.9 12.2 9.4 19.1 13.1 18.1 9.9 38.5 15.9 59.3 20.8 21.8 5.3 44 8.8 66.5 11.4 8.6 1 17.2 1.7 26.1 2.5 14.3-38.8 28.4-77.4 42.6-116 0.2 0.1 0.4 0.1 0.6 0.1 2.3 39.3 4.6 78.6 6.9 118.1 3.1 0.1 5.8 0.4 8.5 0.3 17.5-0.4 34.9-0.6 52.2-1.3 26.8-1.1 53.3-4 79.5-8.3 25.9-4.4 51.2-10.1 75.1-19.4 14.1-5.5 27.5-11.9 37.6-21.8 8.9-8.7 12.7-18.3 7.6-29.3zm-320 82.9c-30.8 0.6-61.4 3-91.6 7.9-29.3 4.7-57.7 11.3-84.4 22.1-17 6.9-32.7 15.1-44.6 27.2-10.8 11.1-15.5 23.3-10.2 37.1 4.4 11.4 14 20 25.5 27.4 19.3 12.5 41.7 20.4 65 26.8 24.2 6.6 49.1 10.9 74.4 13.9 3.9 0.4 7.9 0.8 11.8 1.1 20.1-54.6 40-109 60.1-163.5-2.3 0-4.1-0.1-6 0zm223.1 38.7c-21.9-11.6-46.1-19-71.2-24.7-24.1-5.5-48.6-9-73.5-11.4-6-0.5-12-0.9-18.4-1.3 3.2 54.6 6.4 108.7 9.6 163.1 1.9 0 3.4 0.2 4.9-0.1 15.2-1.7 30.5-3.3 45.7-5.5 27.4-4.2 54.1-10.6 79.4-20.2 18.3-7 35.2-15.4 48.4-27.9 16-15.3 17.8-33 4.9-49.2-7.5-9.5-18.1-16.7-29.8-22.8z"/></svg>
